<?xml version="1.0" encoding="UTF-8"?>
<svg width="217px" height="138px" viewBox="0 0 217 138" version="1.1" xmlns="http://www.w3.org/2000/svg" xmlns:xlink="http://www.w3.org/1999/xlink">
    <title>09293E1C-1C0F-4262-8D35-DCF8E28138C0</title>
    <defs>
        <linearGradient x1="-4.50772372%" y1="22.5358789%" x2="143.496982%" y2="126.485528%" id="linearGradient-1">
            <stop stop-color="#FFFFFF" offset="0%"></stop>
            <stop stop-color="#E6E8EF" offset="100%"></stop>
        </linearGradient>
        <rect id="path-2" x="0" y="0" width="205" height="126" rx="5.82938389"></rect>
        <filter x="-4.4%" y="-7.1%" width="108.8%" height="114.3%" filterUnits="objectBoundingBox" id="filter-3">
            <feMorphology radius="0.5" operator="dilate" in="SourceAlpha" result="shadowSpreadOuter1"></feMorphology>
            <feOffset dx="0" dy="0" in="shadowSpreadOuter1" result="shadowOffsetOuter1"></feOffset>
            <feGaussianBlur stdDeviation="2.5" in="shadowOffsetOuter1" result="shadowBlurOuter1"></feGaussianBlur>
            <feColorMatrix values="0 0 0 0 0.54112885   0 0 0 0 0.54112885   0 0 0 0 0.54112885  0 0 0 0.123442963 0" type="matrix" in="shadowBlurOuter1"></feColorMatrix>
        </filter>
        <linearGradient x1="50%" y1="0%" x2="50%" y2="100%" id="linearGradient-4">
            <stop stop-color="#EFEFEF" offset="0%"></stop>
            <stop stop-color="#E0E0E0" offset="100%"></stop>
        </linearGradient>
    </defs>
    <g id="assets" stroke="none" stroke-width="1" fill="none" fill-rule="evenodd">
        <g id="ASSETS" transform="translate(-9.000000, -931.000000)">
            <g id="dni-frente" transform="translate(15.000000, 937.000000)">
                <g id="Group-15-Copy-3">
                    <g id="Group-4" transform="translate(3.494318, 17.500000)" fill="#01155C">
                        <path d="M201.505682,85.1666667 L201.505682,87.0891017 C201.505682,98.4713394 191.705998,107.854956 179.461819,108.5 L179.461819,108.5 L179.375,108.431432 C185.813165,103.893267 195.222163,94.149035 201.505682,85.1666667 L201.505682,85.1666667 Z M59.4034091,94.5 C62.1900337,94.867284 64.5845052,95.4641204 66.7764075,96.2067901 C67.4776084,96.9845679 68.1034952,97.6489198 68.5501862,98.0837191 C72.8664678,102.350694 77.6216492,105.820988 82.6988636,108.5 L82.6988636,108.5 L73.583251,108.5 C70.70573,106.458333 67.9502698,104.154707 65.3506322,101.58912 L65.3506322,101.58912 L65.1147592,101.353228 C64.2381635,100.46704 61.6695321,97.7796865 59.4086032,94.5756173 C59.4086032,94.5486111 59.4034091,94.5243056 59.4034091,94.5 Z M10.4829545,81.6666667 C12.436293,82.3663488 14.2444509,83.4002076 16.020933,84.682088 C20.6455937,94.4750276 28.1025952,102.631024 37.2727273,108.5 L37.2727273,108.5 L35.6862997,108.5 C32.7219766,107.325161 29.7629329,106.134657 26.7880512,104.920656 C25.856256,104.539486 24.8980643,104.158315 23.9609898,103.777145 C18.3570202,98.1849095 13.7983506,91.6136408 10.7046849,84.235649 C10.6175765,83.3949861 10.5410268,82.5438801 10.4829545,81.6666667 Z M166.517004,12.0160736 C181.046189,12.0160736 192.864529,23.8597741 192.864529,38.4148427 C192.864529,66.2666032 176.444054,93.056956 151.076221,108.049309 L150.304768,108.5 L139.857705,108.5 C168.762832,95.7613362 188.140363,67.6970881 188.140363,38.4201383 C188.140363,26.4731728 178.441029,16.7530243 166.517004,16.7530243 C154.598263,16.7530243 144.898928,26.4731728 144.898928,38.4201383 C144.898928,43.7422573 149.216202,48.0687957 154.526925,48.0687957 C159.743486,48.0687957 164.008217,43.8901621 164.153726,38.6945154 L164.157563,38.4201383 L164.157563,36.0503391 L168.881728,36.0503391 L168.881728,38.4201383 C168.881728,46.3530081 162.440165,52.8057464 154.526925,52.8057464 C146.611042,52.8057464 140.174763,46.3530081 140.174763,38.4201383 C140.174763,23.8624219 151.99046,12.0160736 166.517004,12.0160736 Z M166.520967,0 C181.9342,0 195.233533,9.17902442 201.316009,22.3590166 L201.505682,22.7765508 L201.505682,61.9192793 C199.771404,67.9510141 197.417305,73.7607406 194.461191,79.2659274 L193.933278,80.2342528 L190.823467,85.4239807 C185.428366,93.8056134 178.630259,101.36397 170.733261,107.854274 L169.93991,108.499735 L162.121786,108.499735 C185.24853,92.1441488 200.129121,66.817747 200.131764,38.4172257 C200.129121,19.8454137 185.050368,4.73430282 166.520967,4.73430282 C147.980997,4.73430282 132.902244,19.8454137 132.902244,38.4198735 C132.902244,52.6485188 146.440525,63.0493492 160.147516,59.348224 L160.562918,59.2317416 L165.781165,57.7092449 L163.329249,62.5732909 C156.861265,75.3834459 145.864634,83.0329989 133.908903,83.0329989 C121.736516,83.0329989 115.796961,78.756769 99.9704799,78.3675394 C100.580817,93.6083935 106.594351,103.59862 121.707452,101.26589 C128.117309,102.346201 133.005288,102.293244 138.046511,101.686893 C129.950962,104.999317 121.083905,106.836904 111.799388,106.836904 C98.3569186,106.836904 90.7543617,103.524898 84.026882,99.8013438 L83.3568671,99.427724 C83.1343785,99.3027984 82.9126784,99.177523 82.6915827,99.0520051 L81.8099886,98.5488953 C81.0772873,98.1289841 80.3485788,97.7079707 79.6170529,97.2898339 L78.7374335,96.789705 C72.4175547,93.2189934 65.6878108,89.9787348 54.2163595,89.5995934 C54.3433821,99.2506489 55.7420984,104.833747 58.3126924,108.301978 L58.4622954,108.499735 L45.7905415,108.499735 C29.4620514,95.9517145 22.7721263,76.9377164 4.73416476,75.4311066 C4.82308121,91.6591113 7.49273633,101.638028 20.6779255,108.294908 L21.0890764,108.499735 L11.5561974,108.499735 C11.5561974,108.499735 -0.0347256218,102.167621 7.82220262e-05,73.8314103 L0.00471534413,72.9659859 L0.00471534413,70.5988345 L2.36944005,70.5988345 C26.5186957,70.5988345 32.8070139,94.9402471 52.3853492,107.332046 C49.8999938,101.740181 49.4974993,94.8139145 49.4747705,87.8652064 L49.4736993,87.1927247 L49.4736993,84.8255733 L51.8357819,84.8255733 C66.3462035,84.8255733 74.0727388,88.6923516 81.2170997,92.7644905 L81.8853673,93.1467434 L81.8853673,93.1467434 L82.6991625,93.6145976 L83.5116318,94.0820237 C83.7890699,94.2414203 84.0666387,94.4005278 84.3447096,94.5591272 L85.1808003,95.0331811 C90.3505641,97.9444061 95.8193186,100.606625 103.93899,101.631289 C98.3225524,96.6715564 95.3064268,88.021635 95.2040921,76.5762282 L95.2013982,75.971262 L95.2013982,73.6014628 L97.5608386,73.6014628 C115.794319,73.6014628 121.984878,78.2960483 133.908903,78.2960483 C142.667632,78.2960483 150.895289,73.3128503 156.61026,64.7418558 C141.22766,65.9519097 128.180721,53.7322187 128.180721,38.4198735 C128.180721,17.2346628 145.378479,0 166.520967,0 Z M166.518589,24.034795 C174.434472,24.034795 180.873393,30.4901811 180.873393,38.4204031 C180.873393,58.1201866 172.547976,75.9982698 158.605348,86.2426868 C142.615053,97.9910657 121.749991,97.0219635 106.618395,88.8878593 C106.013342,87.2726889 105.532471,85.4509885 105.204844,83.409519 C105.809897,83.4704188 106.35418,83.5445578 106.932811,83.6134011 C117.395727,90.0290699 138.34798,95.2638108 155.807311,82.4245298 C168.545118,73.0671326 176.146585,56.6162247 176.146585,38.4204031 C176.146585,33.0982842 171.826669,28.7690979 166.518589,28.7690979 C161.299431,28.7690979 157.037208,32.9502888 156.891786,38.1460237 L156.88795,38.4204031 L156.88795,40.7875545 L152.163785,40.7875545 L152.163785,38.4204031 C152.163785,30.4901811 158.605348,24.034795 166.518589,24.034795 Z" id="Combined-Shape"></path>
                    </g>
                    <g id="Group-8">
                        <g id="Rectangle-Copy">
                            <use fill="black" fill-opacity="1" filter="url(#filter-3)" xlink:href="#path-2"></use>
                            <use fill="url(#linearGradient-1)" fill-rule="evenodd" xlink:href="#path-2"></use>
                        </g>
                        <g id="Group-13" transform="translate(15.142045, 14.000000)" fill="#FF6D6A">
                            <rect id="Rectangle-Copy-14" x="64.6448864" y="23.3333333" width="60.5681818" height="3.5" rx="1.16587678"></rect>
                            <rect id="Rectangle-Copy-14" x="18.0539773" y="4.66666667" width="38.4375" height="3.5" rx="1.16587678"></rect>
                            <rect id="Rectangle-Copy-14" x="64.6448864" y="39.6666667" width="60.5681818" height="3.5" rx="1.16587678"></rect>
                            <rect id="Rectangle-Copy-14" x="64.6448864" y="54.8333333" width="60.5681818" height="3.5" rx="1.16587678"></rect>
                            <rect id="Rectangle-Copy-14" x="64.6448864" y="71.1666667" width="32.6136364" height="3.5" rx="1.16587678"></rect>
                            <ellipse id="Oval" cx="5.82386364" cy="6.41666667" rx="5.82386364" ry="6.41666667"></ellipse>
                        </g>
                    </g>
                    <path d="M135.696023,101.5 L135.696023,117.833333 L133.366477,117.833333 L133.366477,101.5 L135.696023,101.5 Z M181.122159,101.5 L181.122159,117.833333 L178.792614,117.833333 L178.792614,101.5 L181.122159,101.5 Z M138.025568,101.5 L138.025568,117.833333 L136.860795,117.833333 L136.860795,101.5 L138.025568,101.5 Z M183.451705,101.5 L183.451705,117.833333 L182.286932,117.833333 L182.286932,101.5 L183.451705,101.5 Z M140.355114,101.5 L140.355114,117.833333 L139.190341,117.833333 L139.190341,101.5 L140.355114,101.5 Z M185.78125,101.5 L185.78125,117.833333 L184.616477,117.833333 L184.616477,101.5 L185.78125,101.5 Z M143.849432,101.5 L143.849432,117.833333 L141.519886,117.833333 L141.519886,101.5 L143.849432,101.5 Z M189.275568,101.5 L189.275568,117.833333 L186.946023,117.833333 L186.946023,101.5 L189.275568,101.5 Z M177.627841,101.5 L177.627841,117.833333 L145.014205,117.833333 L145.014205,101.5 L177.627841,101.5 Z" id="Combined-Shape-Copy-2" fill="#D9D9D6"></path>
                </g>
                <g id="Group-18" transform="translate(17.471591, 37.333333)">
                    <rect id="Rectangle" fill="#FFFFFF" x="0.0171720247" y="0" width="51.25" height="60.6666667"></rect>
                    <path d="M51.267172,60.6666667 C51.267172,60.6666667 51.8233965,53.5458984 49.036018,52.4675293 C43.7993411,50.441586 32.6515673,48.1153158 32.6515673,48.1153158 L18.9393258,48.1153158 C18.9393258,48.1153158 7.24747297,50.4158098 3.16598267,52.0066732 C-0.424001967,53.4059599 0.0171720247,60.6666667 0.0171720247,60.6666667 L51.267172,60.6666667 Z" id="Path" fill="#FFBA05" fill-rule="nonzero"></path>
                    <path d="M18.9393258,48.1153158 C18.9393258,49.8949356 21.4853704,53.3105308 26.5774595,58.3621012 C30.6268647,53.3104251 32.6515673,49.8948299 32.6515673,48.1153158 C32.6515673,48.1153158 32.1782519,39.0329213 33.6803256,36.2591686 C35.5072852,32.8856384 14.9690714,33.1201271 17.7477372,36.4066158 C20.1129682,39.2047845 18.9393258,48.1153158 18.9393258,48.1153158 Z" id="Path" fill="#E4E4E4" fill-rule="nonzero"></path>
                    <path d="M12.8262832,22.7716471 C12.8262832,22.7716471 12.5512379,36.5677012 16.0883512,40.8421647 C19.6252911,45.1163197 20.6611191,46.8324382 25.4198226,46.8197816 C25.5486941,46.8256423 26.0940128,46.8324382 26.2176808,46.8324382 C30.6553331,46.8210155 31.7183924,45.000185 35.1594159,40.8421647 C36.6377083,39.0552647 37.3535258,36.2723522 37.6860245,33.6385795 C37.6860245,33.6385795 38.2479941,30.3659892 38.3935165,27.8676297 C38.6061631,24.2222673 38.1714017,18.2572691 37.1780683,16.7990316 C35.9051499,14.9299675 20.8305955,13.0281068 14.1079561,16.2487386 C11.9909585,17.262934 13.3736494,24.4874808 12.8315289,25.0278067 L12.8262832,22.7716471 Z" id="Path" fill="#E4E4E4" fill-rule="nonzero"></path>
                    <path d="M35.1259079,21.0828857 C34.8028189,21.8582611 32.2830411,22.3749244 30.5777724,22.7825592 C28.8227007,23.2020991 20.9146477,21.6639107 19.1716031,22.0145671 C14.322818,22.9900195 13.2247416,26.3532137 13.2247416,26.3532137 C13.2247416,26.3532137 13.3790007,31.5271056 13.2247416,31.1379801 C12.2976497,27.7928064 11.7151209,29.6837034 11.6652387,22.7825592 C11.6151856,15.8815782 17.1054766,9.49910482 25.7060611,9.49910482 C26.9762285,9.49910482 28.4025452,9.67266897 29.7195991,10.0029488 C30.2165218,10.1275629 30.3648063,9.33333333 30.3648063,9.33333333 C30.3648063,9.33333333 31.9666541,10.7757865 32.3246782,10.9695231 C33.1079635,11.39338 33.7113445,11.9030167 34.0133314,12.490721 C34.0133314,12.490721 35.8753735,11.2848399 37.4664799,13.3817122 C38.3677766,14.569483 39.6194448,17.429596 39.6194448,21.5704783 C39.6194448,24.8027485 38.1188528,29.9453939 37.9374319,29.9453939 C37.8165984,29.9453939 37.3757758,27.9373372 36.614964,23.921224 L35.1259079,21.0828857 Z" id="Path" fill="#00155F" fill-rule="nonzero" transform="translate(25.642172, 20.246106) scale(-1, 1) translate(-25.642172, -20.246106) "></path>
                </g>
                <path d="M200.665962,0 C203.06243,0 205,0.837721984 205,1.87385181 L205,124.137171 C204.974506,125.162278 203.036936,126 200.640468,126 L4.33403805,126 C1.93756995,126 0,125.162278 0,124.126148 L0,1.87385181 C0,0.837721984 1.93756995,0 4.33403805,0 L200.665962,0 Z" id="Path-2" fill="url(#linearGradient-4)" fill-rule="nonzero" opacity="0.62" style="mix-blend-mode: multiply;"></path>
            </g>
        </g>
    </g>
</svg>