<?xml version="1.0" encoding="UTF-8"?>
<svg width="14px" height="15px" viewBox="0 0 14 15" version="1.1" xmlns="http://www.w3.org/2000/svg" xmlns:xlink="http://www.w3.org/1999/xlink">
    <!-- Generator: sketchtool 54.1 (76490) - https://sketchapp.com -->
    <title>52F06080-71B8-4A11-853F-5FC5195FA273@1x</title>
    <desc>Created with sketchtool.</desc>
    <defs>
        <path d="M5.88855907,7.52643071 C5.8883425,7.51682686 5.88834136,7.50721865 5.88855566,7.49761419 L1.04479157,2.53915379 C0.699380438,2.18517426 0.699380438,1.61067246 1.04479157,1.25669293 C1.39081623,0.902713399 1.95279953,0.902713399 2.29821067,1.25669293 L7.02239579,6.09206365 L11.7465809,1.25669293 C12.091992,0.902713399 12.6539753,0.902713399 13,1.25669293 C13.3454111,1.61067246 13.3454111,2.18517426 13,2.53915379 L8.15623591,7.49761419 C8.15645021,7.50721865 8.15644907,7.51682686 8.1562325,7.52643071 L13,12.4836273 C13.3454111,12.8382423 13.3454111,13.4127441 13,13.7667236 C12.6539753,14.1207032 12.091992,14.1207032 11.7465809,13.7667236 L7.02239579,8.93135292 L2.29821067,13.7667236 C1.95279953,14.1207032 1.39081623,14.1207032 1.04479157,13.7667236 C0.699380438,13.4127441 0.699380438,12.8382423 1.04479157,12.4836273 L5.88855907,7.52643071 Z" id="path-1"></path>
    </defs>
    <g id="Asset-Artboard-Page" stroke="none" stroke-width="1" fill="none" fill-rule="evenodd">
        <g id="icon-/-close">
            <mask id="mask-2" fill="white">
                <use xlink:href="#path-1"></use>
            </mask>
            <use id="Combined-Shape" fill="#FFFFFF" xlink:href="#path-1"></use>
            <g id="color-/-black" mask="url(#mask-2)" fill="#FFFFFF">
                <rect id="Rectangle" x="0" y="0" width="14" height="15"></rect>
            </g>
        </g>
    </g>
</svg>