<?xml version="1.0" encoding="UTF-8"?>
<svg width="17px" height="11px" viewBox="0 0 17 11" version="1.1" xmlns="http://www.w3.org/2000/svg" xmlns:xlink="http://www.w3.org/1999/xlink">
    <!-- Generator: sketchtool 54.1 (76490) - https://sketchapp.com -->
    <title>BB86FBAD-9994-4575-B34D-261788835CDA@1x</title>
    <desc>Created with sketchtool.</desc>
    <g id="Page-1" stroke="none" stroke-width="1" fill="none" fill-rule="evenodd">
        <g id="Assets" transform="translate(-229.000000, -624.000000)" fill="#FFFFFF" fill-rule="nonzero">
            <path d="M238.686418,634.805596 L237.24859,634.805596 L236.355624,632.391753 L231.330794,632.391753 L230.437828,634.805596 L229,634.805596 L233.071323,624 L234.63023,624 L238.686418,634.805596 Z M235.992383,631.209131 L233.843209,625.377025 L231.70917,631.209131 L235.992383,631.209131 Z M246,634.805596 L244.864873,634.805596 L244.864873,633.91458 C244.274607,634.627393 243.427045,635 242.443268,635 C241.217331,635 239.900584,634.108984 239.900584,632.407953 C239.900584,630.642121 241.202196,629.832106 242.443268,629.832106 C243.44218,629.832106 244.274607,630.172312 244.864873,630.885125 L244.864873,629.4757 C244.864873,628.438881 244.077851,627.83947 243.018399,627.83947 C242.140568,627.83947 241.429222,628.163476 240.778415,628.92489 L240.248689,628.082474 C241.035711,627.207658 241.974083,626.786451 243.16975,626.786451 C244.728658,626.786451 246,627.531664 246,629.427099 L246,634.805596 Z M242.867049,634.125184 C243.654071,634.125184 244.425957,633.801178 244.864873,633.153166 L244.864873,631.662739 C244.425957,631.030928 243.654071,630.706922 242.867049,630.706922 C241.792462,630.706922 241.050846,631.419735 241.050846,632.407953 C241.050846,633.412371 241.792462,634.125184 242.867049,634.125184 Z" id="Aa-/-3"></path>
        </g>
    </g>
</svg>