<?xml version="1.0" encoding="UTF-8"?>
<svg width="55px" height="41px" viewBox="0 0 55 41" version="1.1" xmlns="http://www.w3.org/2000/svg" xmlns:xlink="http://www.w3.org/1999/xlink">
    <!-- Generator: sketchtool 54.1 (76490) - https://sketchapp.com -->
    <title>FC43166C-967D-48D9-BDC6-50357EEA6E77@1x</title>
    <desc>Created with sketchtool.</desc>
    <g id="Page-1" stroke="none" stroke-width="1" fill="none" fill-rule="evenodd">
        <g id="Assets" transform="translate(-80.000000, -607.000000)">
            <g id="Aa-/-1" transform="translate(80.000000, 607.000000)">
                <rect id="Rectangle-Copy-2" stroke="#FFFFFF" stroke-width="1.1" opacity="0.300000012" x="0.55" y="0.55" width="53.9" height="39.9" rx="5.5"></rect>
                <path d="M29.9565832,30.6745214 L26.9794341,30.6745214 L25.1304679,26.2975759 L14.7261153,26.2975759 L12.8771491,30.6745214 L9.9,30.6745214 L18.3300326,11.0810811 L21.557889,11.0810811 L29.9565832,30.6745214 Z M24.378346,24.1531664 L19.9282916,13.5779963 L15.5095756,24.1531664 L24.378346,24.1531664 Z M45.1,30.6745214 L42.7496192,30.6745214 L42.7496192,29.0588704 C41.5274211,30.3513912 39.7724701,31.027027 37.7354734,31.027027 C35.197062,31.027027 32.4706203,29.411376 32.4706203,26.3269514 C32.4706203,23.1250249 35.1657236,21.6562512 37.7354734,21.6562512 C39.8038085,21.6562512 41.5274211,22.2731362 42.7496192,23.565657 L42.7496192,21.0099908 C42.7496192,19.1299606 41.1200218,18.0430681 38.926333,18.0430681 C37.1087051,18.0430681 35.6357998,18.6305776 34.2882481,20.0112248 L33.1914037,18.4837002 C34.8210011,16.8974247 36.7639826,16.1336624 39.2397171,16.1336624 C42.4675735,16.1336624 45.1,17.4849341 45.1,20.9218644 L45.1,30.6745214 Z M38.6129489,29.4407515 C40.2425463,29.4407515 41.8408052,28.853242 42.7496192,27.6782231 L42.7496192,24.9756797 C41.8408052,23.8300362 40.2425463,23.2425268 38.6129489,23.2425268 C36.3879217,23.2425268 34.8523395,24.5350476 34.8523395,26.3269514 C34.8523395,28.1482307 36.3879217,29.4407515 38.6129489,29.4407515 Z" id="Aa" fill="#FFFFFF" fill-rule="nonzero"></path>
            </g>
        </g>
    </g>
</svg>