<?xml version="1.0" encoding="UTF-8"?>
<svg width="87px" height="79px" viewBox="0 0 87 79" version="1.1" xmlns="http://www.w3.org/2000/svg" xmlns:xlink="http://www.w3.org/1999/xlink">
    <!-- Generator: sketchtool 54.1 (76490) - https://sketchapp.com -->
    <title>BC4F5062-BA33-4795-B676-27A687A305F4@1x</title>
    <desc>Created with sketchtool.</desc>
    <defs>
        <path d="M78.8443798,70.0318801 C78.8443798,72.3414788 76.9210622,74.2203666 74.557065,74.2203666 L67.5369385,74.2203666 C65.3778186,74.2203666 63.4313075,72.8884077 62.693327,70.9058333 L58.8405422,60.5543541 C58.4796346,59.5844393 58.6423417,58.5125548 59.276302,57.6870115 L60.289268,56.3672408 L60.289268,60.9162267 C60.289268,61.5800603 60.839942,62.1178909 61.5192354,62.1178909 C62.1987045,62.1178909 62.7492027,61.5800603 62.7492027,60.9162267 L62.7492027,43.6982662 C62.7492027,43.111339 63.2380269,42.6337633 63.8387781,42.6337633 C64.4395293,42.6337633 64.9281777,43.111339 64.9281777,43.6982662 L64.9281777,50.4960809 L64.9281777,52.7620764 L64.9281777,58.908589 C64.9281777,59.572251 65.4788517,60.1102533 66.1581451,60.1102533 C66.8374385,60.1102533 67.3881124,59.572251 67.3881124,58.908589 L67.3881124,52.7620764 L67.3881124,50.4960809 C67.3881124,49.9093254 67.8767609,49.4319214 68.4775121,49.4319214 C69.0780876,49.4319214 69.566736,49.9093254 69.566736,50.4993426 L69.5744673,53.3675435 C69.572183,53.41767 69.566736,53.4667666 69.566736,53.5174082 L69.566736,55.7835753 C69.566736,55.8438302 69.5727102,55.9025401 69.5814956,55.9605633 L69.5895783,58.9166573 C69.5915111,59.5792893 70.1416579,60.1152316 70.8195456,60.1152316 L70.8228841,60.1152316 C71.5021775,60.1135149 72.0512701,59.5741394 72.049513,58.9103057 L72.0345777,53.3944951 C72.097306,52.8654195 72.5580166,52.4532486 73.1160704,52.4532486 C73.7168216,52.4532486 74.2056457,52.9306527 74.2056457,53.5174082 L74.2056457,55.0282435 L74.2056457,57.2940673 L74.2056457,58.9135673 C74.2056457,59.5772294 74.756144,60.1152316 75.4356131,60.1152316 C76.1149065,60.1152316 76.6655804,59.5772294 76.6655804,58.9135673 L76.6655804,57.2940673 L76.6655804,55.0282435 C76.6655804,54.4413163 77.1542289,53.9637406 77.7549801,53.9637406 C78.3557313,53.9637406 78.8443798,54.4413163 78.8443798,55.0282435 L78.8443798,70.0318801 Z M77.754981,51.5604116 C77.2162553,51.5604116 76.7074002,51.6817797 76.2495009,51.8924143 C75.6522639,50.7975265 74.4723737,50.0499197 73.1160711,50.0499197 C72.7307399,50.0499197 72.360344,50.1120629 72.0126146,50.223646 C71.869587,48.4388314 70.3403861,47.0285926 68.4775126,47.0285926 C68.0974527,47.0285926 67.7316252,47.0886758 67.3881129,47.1971689 L67.3881129,43.6982661 C67.3881129,41.7860751 65.7958322,40.2304349 63.8387784,40.2304349 C61.8815488,40.2304349 60.2892682,41.7860751 60.2892682,43.6982661 L60.2892682,52.3615783 L57.3083543,56.2450136 C56.1741487,57.7222023 55.8828221,59.64023 56.5287307,61.3756047 L60.3815157,71.7270834 C61.4716183,74.6560541 64.3471063,76.6236934 67.536939,76.6236934 L74.5570658,76.6236934 C78.2773657,76.6236934 81.3043155,73.6665694 81.3043155,70.0318786 L81.3043155,55.0282428 C81.3043155,53.1160517 79.7120349,51.5604116 77.754981,51.5604116 L77.754981,51.5604116 Z" id="path-1"></path>
    </defs>
    <g id="Asset-Artboard-Page" stroke="none" stroke-width="1" fill="none" fill-rule="evenodd">
        <g id="icon-/-firma">
            <g id="Group-2" fill="#FFFFFF" fill-rule="nonzero">
                <path d="M22.2361344,29.8865729 C25.705282,26.038755 28.6031158,22.0747959 31.4561841,17.2606279 C36.0977283,9.42864781 37.4141364,4.39029121 35.6030185,1.74494181 C33.9964085,-0.601700046 30.5826289,-0.407793009 27.3115237,1.29564785 C20.833,4.66936457 17.8056484,18.7292738 19.3987728,29.0192772 C17.2831563,31.2944177 14.940371,33.5530993 12.2495022,35.9622606 C10.2849436,37.7211492 2.35429009,44.5338453 0.44948866,46.2164967 C-0.10483158,46.7061686 -0.153095285,47.5478486 0.341688657,48.0964417 C0.8364726,48.6450347 1.68693958,48.6927998 2.24125982,48.2031279 C4.12474722,46.5393048 12.0646174,39.7186913 14.0546277,37.9370155 C16.2656562,35.9574598 18.2519263,34.0718825 20.075488,32.1937787 C20.9650129,35.3772086 22.4094091,37.937967 24.455415,39.298228 C27.9899302,41.6481055 32.4279835,41.2698637 37.0673984,38.8856552 C39.7094922,45.2521774 47.645086,50.173655 57.1348845,46.8404005 C57.8351129,46.5944481 58.2012947,45.8332818 57.9527746,45.1402881 C57.7042544,44.4472944 56.9351418,44.0848958 56.2349134,44.3308483 C48.1412593,47.1737125 41.4311626,42.8930212 39.4125428,37.5220214 C41.158535,36.3910993 42.9161465,34.9986162 44.649083,33.3818989 C51.0652649,27.3960176 55.1161204,20.292231 52.3103018,17.7678409 C50.4243436,16.0710475 47.8846846,16.5980427 45.0468495,18.4308921 C43.3872258,19.5027798 41.6204687,21.0730451 40.7970673,22.0053738 C36.6895928,26.6562238 35.4263373,31.8330834 36.2823645,36.2681959 C32.2832841,38.4297336 28.6115899,38.8534047 25.9558531,37.0877719 C24.1074567,35.8588891 22.8877243,33.201184 22.2361344,29.8865729 Z M42.8230024,23.7578316 C43.0295723,23.5239347 43.5357186,23.0254039 44.093763,22.5294231 C44.8812394,21.8295267 45.7087593,21.1832037 46.5173835,20.6609441 C48.4330562,19.4236842 49.8287869,19.1340614 50.5003255,19.7382434 C50.5048783,19.7423396 50.517315,19.766264 50.5330173,19.8520949 C50.5647837,20.0257338 50.5550873,20.2829173 50.4908428,20.6106969 C50.3393105,21.3838236 49.9139127,22.4081139 49.2460508,23.5793107 C47.8304001,26.0618678 45.4877215,28.9399129 42.8034012,31.4442096 C41.4545012,32.7026458 40.1017021,33.802925 38.768602,34.7295759 C38.433621,31.2869847 39.6346114,27.3680131 42.8230024,23.7578316 Z M28.5644842,3.65223714 C30.7661829,2.50569384 32.7947649,2.39046779 33.3754743,3.2386617 C34.3783761,4.70351715 33.2742723,8.92931087 29.135218,15.913407 C26.811004,19.8352048 24.4604485,23.1693495 21.7692711,26.3497472 C21.0988221,17.4492793 23.6518672,6.2105018 28.5644842,3.65223714 Z" id="Path-11"></path>
            </g>
            <mask id="mask-2" fill="white">
                <use xlink:href="#path-1"></use>
            </mask>
            <use id="Fill-1" fill="#FFFFFF" transform="translate(68.747614, 58.427064) rotate(-18.000000) translate(-68.747614, -58.427064) " xlink:href="#path-1"></use>
        </g>
    </g>
</svg>