<?xml version="1.0" encoding="UTF-8"?>
<svg width="35px" height="20px" viewBox="0 0 35 20" version="1.1" xmlns="http://www.w3.org/2000/svg" xmlns:xlink="http://www.w3.org/1999/xlink">
    <!-- Generator: sketchtool 54.1 (76490) - https://sketchapp.com -->
    <title>DB58E0CD-B036-4A8E-9EC2-12F0C16C93B0@1x</title>
    <desc>Created with sketchtool.</desc>
    <g id="Page-1" stroke="none" stroke-width="1" fill="none" fill-rule="evenodd">
        <g id="Assets" transform="translate(-158.000000, -618.000000)" fill="#FFFFFF" fill-rule="nonzero">
            <path d="M177.942625,637.646539 L174.982392,637.646539 L173.143931,633.257732 L162.798694,633.257732 L160.960233,637.646539 L158,637.646539 L166.382135,618 L169.591651,618 L177.942625,637.646539 Z M172.396083,631.107511 L167.971313,620.503682 L163.577703,631.107511 L172.396083,631.107511 Z M193,637.646539 L190.662974,637.646539 L190.662974,636.02651 C189.44772,637.322533 187.70274,638 185.677317,638 C183.153329,638 180.442378,636.379971 180.442378,633.287187 C180.442378,630.076583 183.122168,628.603829 185.677317,628.603829 C187.7339,628.603829 189.44772,629.222386 190.662974,630.518409 L190.662974,627.955817 C190.662974,626.070692 189.042635,624.980854 186.861411,624.980854 C185.05411,624.980854 183.589574,625.569956 182.249679,626.954345 L181.159066,625.42268 C182.779405,623.832106 184.711346,623.066274 187.173014,623.066274 C190.38253,623.066274 193,624.421208 193,627.867452 L193,637.646539 Z M186.549807,636.409426 C188.170145,636.409426 189.759323,635.820324 190.662974,634.642121 L190.662974,631.932253 C189.759323,630.783505 188.170145,630.194404 186.549807,630.194404 C184.337422,630.194404 182.810565,631.490427 182.810565,633.287187 C182.810565,635.113402 184.337422,636.409426 186.549807,636.409426 Z" id="Aa-/-2"></path>
        </g>
    </g>
</svg>