<?xml version="1.0"?>
<svg xmlns="http://www.w3.org/2000/svg" xmlns:xlink="http://www.w3.org/1999/xlink" viewBox="0 0 98.62 65.34">
  <defs>
    <style>.cls-1{fill:none;}.cls-2{isolation:isolate;}.cls-3{fill:#ececec;}.cls-4{fill:#4c4c4c;}.cls-5{fill:#bfc3d1;}.cls-6{fill:#4c84e0;}.cls-7{clip-path:url(#clip-path);}.cls-8{fill:#fff;}.cls-9{fill:#29292b;}.cls-10{fill:#e9a57b;}.cls-11{opacity:0.65;}.cls-11,.cls-18,.cls-21,.cls-26,.cls-33{mix-blend-mode:multiply;}.cls-12{clip-path:url(#clip-path-2);}.cls-13{fill:#c9c9c9;}.cls-14{clip-path:url(#clip-path-3);}.cls-15{fill:#f2b48a;}.cls-16{fill:#ea9d6f;}.cls-17{fill:#520d00;}.cls-19{clip-path:url(#clip-path-4);}.cls-20{fill:#404040;}.cls-21{opacity:0.22;}.cls-22{clip-path:url(#clip-path-5);}.cls-23{clip-path:url(#clip-path-6);}.cls-24{clip-path:url(#clip-path-7);}.cls-25{clip-path:url(#clip-path-8);}.cls-26{opacity:0.85;}.cls-27{clip-path:url(#clip-path-9);}.cls-28{clip-path:url(#clip-path-10);}.cls-29{fill:#404042;}.cls-30{clip-path:url(#clip-path-11);}.cls-31{clip-path:url(#clip-path-12);}.cls-32{clip-path:url(#clip-path-13);}.cls-33{opacity:0.5;}.cls-34{clip-path:url(#clip-path-14);}.cls-35{fill:#00cc82;}</style>
    <clipPath id="clip-path">
      <rect class="cls-1" x="8.63" y="12.44" width="29.72" height="38.86"/>
    </clipPath>
    <clipPath id="clip-path-2">
      <rect class="cls-1" x="16.79" y="42.66" width="6.89" height="6.37"/>
    </clipPath>
    <clipPath id="clip-path-3">
      <rect class="cls-1" x="24.39" y="43.27" width="7.37" height="5.59"/>
    </clipPath>
    <clipPath id="clip-path-4">
      <rect class="cls-1" x="38.36" y="60.81" width="0.25" height="4.53"/>
    </clipPath>
    <clipPath id="clip-path-5">
      <rect class="cls-1" x="38.36" y="46.79" width="9.15" height="18.55"/>
    </clipPath>
    <clipPath id="clip-path-6">
      <rect class="cls-1" x="0.3" y="46.77" width="9.66" height="18.57"/>
    </clipPath>
    <clipPath id="clip-path-7">
      <rect class="cls-1" x="25.09" y="47.26" width="2.24" height="11.14"/>
    </clipPath>
    <clipPath id="clip-path-8">
      <rect class="cls-1" x="20.5" y="47.26" width="1.91" height="12.4"/>
    </clipPath>
    <clipPath id="clip-path-9">
      <rect class="cls-1" x="23.68" y="40.91" width="13.5" height="24.08"/>
    </clipPath>
    <clipPath id="clip-path-10">
      <rect class="cls-1" x="23.83" y="39.59" width="5.96" height="25.1"/>
    </clipPath>
    <clipPath id="clip-path-11">
      <rect class="cls-1" x="10.23" y="40.82" width="13.45" height="24.16"/>
    </clipPath>
    <clipPath id="clip-path-12">
      <rect class="cls-1" x="17.66" y="40.17" width="6.02" height="24.82"/>
    </clipPath>
    <clipPath id="clip-path-13">
      <rect class="cls-1" x="9.59" y="61.18" width="0.37" height="4.16"/>
    </clipPath>
    <clipPath id="clip-path-14">
      <rect class="cls-1" x="29.43" y="39.59" width="0.1" height="0.16"/>
    </clipPath>
  </defs>
  <title>Asset 1</title>
  <g class="cls-2">
    <g id="Layer_2" data-name="Layer 2">
      <g id="Layer_1-2" data-name="Layer 1">
        <path class="cls-3" d="M91,3.27H8a4,4,0,0,0-4,4V51a4,4,0,0,0,4,4H91a4,4,0,0,0,4-4V7.22a4,4,0,0,0-4-3.95"/>
        <rect class="cls-4" x="43.49" y="47.94" width="1.59" height="4.21"/>
        <rect class="cls-4" x="45.88" y="47.94" width="0.79" height="4.21"/>
        <rect class="cls-4" x="47.46" y="47.94" width="1.59" height="4.21"/>
        <rect class="cls-4" x="49.85" y="47.94" width="0.79" height="4.21"/>
        <rect class="cls-4" x="51.44" y="47.94" width="0.8" height="4.21"/>
        <rect class="cls-4" x="53.83" y="47.94" width="1.59" height="4.21"/>
        <rect class="cls-4" x="56.21" y="47.94" width="0.8" height="4.21"/>
        <rect class="cls-4" x="57.8" y="47.94" width="1.59" height="4.21"/>
        <rect class="cls-4" x="60.19" y="47.94" width="0.8" height="4.21"/>
        <rect class="cls-4" x="61.78" y="47.94" width="1.59" height="4.21"/>
        <rect class="cls-4" x="64.96" y="47.94" width="0.8" height="4.21"/>
        <rect class="cls-4" x="66.55" y="47.94" width="0.8" height="4.21"/>
        <rect class="cls-4" x="68.14" y="47.94" width="1.59" height="4.21"/>
        <rect class="cls-4" x="70.53" y="47.94" width="0.79" height="4.21"/>
        <rect class="cls-4" x="72.12" y="47.94" width="1.59" height="4.21"/>
        <rect class="cls-4" x="75.3" y="47.94" width="0.8" height="4.21"/>
        <rect class="cls-4" x="76.89" y="47.94" width="1.59" height="4.21"/>
        <rect class="cls-4" x="79.28" y="47.94" width="0.8" height="4.21"/>
        <rect class="cls-4" x="80.87" y="47.94" width="0.79" height="4.21"/>
        <rect class="cls-4" x="82.46" y="47.94" width="1.59" height="4.21"/>
        <rect class="cls-4" x="85.64" y="47.94" width="0.79" height="4.21"/>
        <rect class="cls-4" x="87.23" y="47.94" width="0.79" height="4.21"/>
        <rect class="cls-4" x="88.82" y="47.94" width="1.59" height="4.21"/>
        <path class="cls-5" d="M83.84,21.08H44.09a.22.22,0,0,1-.2-.24V19.26a.22.22,0,0,1,.2-.23H83.84a.22.22,0,0,1,.21.23v1.58a.23.23,0,0,1-.21.24"/>
        <path class="cls-5" d="M76.83,25.64H44.12a.23.23,0,0,1-.23-.24V23.82a.23.23,0,0,1,.23-.24H76.83a.24.24,0,0,1,.24.24V25.4a.24.24,0,0,1-.24.24"/>
        <path class="cls-5" d="M76.83,30.19H44.12a.23.23,0,0,1-.23-.23V28.38a.23.23,0,0,1,.23-.24H76.83a.24.24,0,0,1,.24.24V30a.23.23,0,0,1-.24.23"/>
        <path class="cls-5" d="M83.84,34.75H44.09a.22.22,0,0,1-.2-.23V32.94a.22.22,0,0,1,.2-.24H83.84a.23.23,0,0,1,.21.24v1.58a.22.22,0,0,1-.21.23"/>
        <path class="cls-5" d="M76.83,39.31H44.12a.23.23,0,0,1-.23-.24V37.5a.23.23,0,0,1,.23-.24H76.83a.24.24,0,0,1,.24.24v1.57a.24.24,0,0,1-.24.24"/>
        <path class="cls-6" d="M77.18,15.47H44.12a.24.24,0,0,1-.23-.25V10.9a.24.24,0,0,1,.23-.25H77.18a.25.25,0,0,1,.24.25v4.32a.25.25,0,0,1-.24.25"/>
        <g class="cls-7">
          <rect class="cls-8" x="8.63" y="12.44" width="29.72" height="38.86"/>
          <path class="cls-9" d="M47.53,65.34,45.67,46.92a.6.6,0,0,0-.36-.46L31.59,41.28a18.06,18.06,0,0,0-15.35,0L2.52,46.46a.62.62,0,0,0-.36.46L.3,65.34Z"/>
          <path class="cls-10" d="M18.48,34.47a54.93,54.93,0,0,1-1.05,12.29H30.16S28.34,37.68,28.65,34Z"/>
          <polygon class="cls-8" points="16.36 43.51 31.94 43.51 27.84 57.46 20.08 57.46 16.36 43.51"/>
          <path class="cls-6" d="M20.92,42.15a9.49,9.49,0,0,0,5.77,0l-1.6,5.11H22.42Z"/>
          <path class="cls-8" d="M16.36,43.51l2.06-4.6c-.24,2.58,2.08,3.31,5.38,3.6a18.44,18.44,0,0,0-2.89,5.85,11,11,0,0,1-4.55-4.85"/>
          <g class="cls-11">
            <g class="cls-12">
              <path class="cls-13" d="M20.91,48.36a11.28,11.28,0,0,1-4.12-4A11.12,11.12,0,0,0,21.27,49a18,18,0,0,1,2.41-6.37,18.72,18.72,0,0,0-2.77,5.7"/>
            </g>
          </g>
          <g class="cls-11">
            <g class="cls-14">
              <path class="cls-13" d="M26.46,48.19a11.58,11.58,0,0,0-2.07-4.92,17,17,0,0,1,1.75,5.59,16.15,16.15,0,0,0,5.62-4.68l-.17-.27a18.2,18.2,0,0,1-5.13,4.28"/>
            </g>
          </g>
          <path class="cls-8" d="M31.94,43.51l-3.06-4.79c.43,2.07-2.12,3.62-5.08,3.79a12,12,0,0,1,2.66,5.68,19.18,19.18,0,0,0,5.48-4.68"/>
          <path class="cls-15" d="M30.21,27.84a21.13,21.13,0,0,1-.09,5.55,17.13,17.13,0,0,1-3.8,5.11c-1.2,1.28-4.39,1.26-5.41.41A15.67,15.67,0,0,1,16.74,34,28.86,28.86,0,0,1,16,28.11c-.19-8.74,2-11.61,6.84-11.7s7,2.86,7.34,11.43"/>
          <path class="cls-16" d="M16,28.11c0-.46,0-.91,0-1.34-.24-.38-.68-.91-1.25-.78-.87.19.06,2.88.06,2.88s.18,2.94.8,3a5.12,5.12,0,0,0,.73,0A23.18,23.18,0,0,1,16,28.11"/>
          <path class="cls-15" d="M16,28.11c0-.46,0-.91,0-1.34-.24-.38-.68-.91-1.25-.78-.87.19.06,2.88.06,2.88s.18,2.94.8,3a5.12,5.12,0,0,0,.73,0A23.18,23.18,0,0,1,16,28.11"/>
          <path class="cls-15" d="M31.57,25.67c-.88-.16-1.4,1.2-1.4,1.2,0,.32,0,.64,0,1,.05,1.34.19,2.53.13,3.81a5.87,5.87,0,0,0,.62-.07c.62-.09.67-3,.67-3s.82-2.73-.06-2.88"/>
          <path class="cls-17" d="M17.21,16.32S14,19.8,14.67,23.44a14.66,14.66,0,0,0,.82,3c.22.46.28.84.4,1s.25.1.28-.09a46.18,46.18,0,0,0,.46-4.65A2.38,2.38,0,0,1,19,20a32.88,32.88,0,0,1,4.05.14A33,33,0,0,1,27.05,20c2.12.14,2.29,2,2.31,2.8A31.45,31.45,0,0,0,30.12,27c0,.18.13.19.21,0s.23-.48.38-.75a8.17,8.17,0,0,0,.63-2.86c.71-3.64-2.54-7.12-2.54-7.12s-5.69-4.56-11.59,0"/>
          <g class="cls-18">
            <g class="cls-19">
              <polygon class="cls-20" points="38.6 65.34 38.36 60.82 38.38 65.34 38.6 65.34"/>
            </g>
          </g>
          <path class="cls-9" d="M47.41,65.34l-1.85-18.4c0-.19-.11-.2-.19,0l-7,13.91.25,4.52Z"/>
          <g class="cls-21">
            <g class="cls-22">
              <path class="cls-9" d="M47.51,65.34l-1.88-18.4c0-.18-.1-.2-.18,0L38.36,60.82l.26,4.52Z"/>
            </g>
          </g>
          <g class="cls-21">
            <g class="cls-23">
              <path class="cls-9" d="M9.67,65.34,10,61.15,2.35,46.89c-.06-.12-.13-.15-.16-.08a.23.23,0,0,0,0,.11L.3,65.34Z"/>
            </g>
          </g>
          <g class="cls-11">
            <g class="cls-24">
              <path class="cls-13" d="M27.32,58.3a74.06,74.06,0,0,0-2.17-10.91l-.06-.13a105,105,0,0,1,2,11.14,1.09,1.09,0,0,1,.25-.1"/>
            </g>
          </g>
          <g class="cls-11">
            <g class="cls-25">
              <path class="cls-13" d="M20.8,59.66c.38-4.74.79-9.52,1.62-12.4l-.11.17c-.9,2.85-1.38,7.49-1.81,12.15l.3.08"/>
            </g>
          </g>
          <path class="cls-6" d="M25.58,61.37A14.12,14.12,0,0,1,27.15,59a108.21,108.21,0,0,0-2.06-11.74H22.42c-.87,3-1.28,8.12-1.68,13.09A43.82,43.82,0,0,1,23.68,65c.57-1.12,1.72-3.34,1.9-3.62"/>
          <g class="cls-26">
            <g class="cls-27">
              <path class="cls-13" d="M34.07,46l2-2.09a56.12,56.12,0,0,1-5.37-3v0a19.13,19.13,0,0,0,5,3l-2,2.09a6.12,6.12,0,0,0,3.11,1.34A80,80,0,0,0,23.68,65a104.59,104.59,0,0,1,13.5-17.62A6.16,6.16,0,0,1,34.07,46"/>
            </g>
          </g>
          <g class="cls-11">
            <g class="cls-28">
              <path class="cls-13" d="M24.29,63.79c2.22-5.15,6.81-22.15,5.14-24.2,1.49,2.2-4,21.56-5.6,25.1.15-.3.3-.6.46-.9"/>
            </g>
          </g>
          <path class="cls-29" d="M23.68,65A80,80,0,0,1,36.83,47.37,6.12,6.12,0,0,1,33.72,46l2-2.09a16.65,16.65,0,0,1-6.33-4.35c1.85,2.27-4,22.8-5.75,25.4"/>
          <g class="cls-26">
            <g class="cls-30">
              <path class="cls-13" d="M23.68,65c-4.13-10.56-6.77-20.38-6.3-24.16-.32.11-.64.24-1,.38a18.61,18.61,0,0,1-5.1,2.92l2.25,2a6.17,6.17,0,0,1-3.33,1.34A147.45,147.45,0,0,1,23.68,65"/>
            </g>
          </g>
          <g class="cls-18">
            <g class="cls-31">
              <path class="cls-13" d="M23.68,65c-.87-3.47-6.29-16.48-5.82-24.82-.93,3.18,1.42,13.58,5.82,24.82"/>
            </g>
          </g>
          <path class="cls-29" d="M23.68,65A118.61,118.61,0,0,0,10.58,47.5a6.13,6.13,0,0,0,3.33-1.34l-2.25-2a16.74,16.74,0,0,0,6.2-4c-.93,3.18,1.42,13.58,5.82,24.82"/>
          <g class="cls-18">
            <g class="cls-32">
              <polygon class="cls-20" points="9.85 65.34 9.96 61.18 9.59 65.34 9.85 65.34"/>
            </g>
          </g>
          <g class="cls-33">
            <g class="cls-34">
              <path class="cls-13" d="M29.53,39.74l-.1-.15a.56.56,0,0,1,.1.15"/>
            </g>
          </g>
        </g>
        <path class="cls-35" d="M97.82,21.05a.8.8,0,0,1-.81-.8v-17a1.65,1.65,0,0,0-1.66-1.65h-17a.81.81,0,0,1,0-1.62h17a3.27,3.27,0,0,1,3.27,3.27v17a.8.8,0,0,1-.8.8"/>
        <path class="cls-35" d="M95.35,58.77h-17a.81.81,0,1,1,0-1.61h17A1.66,1.66,0,0,0,97,55.5v-17a.81.81,0,1,1,1.61,0v17a3.26,3.26,0,0,1-3.27,3.27"/>
        <path class="cls-35" d="M20.25,58.77h-17A3.27,3.27,0,0,1,0,55.5v-17a.81.81,0,0,1,1.62,0v17a1.65,1.65,0,0,0,1.65,1.66h17a.81.81,0,1,1,0,1.61"/>
        <path class="cls-35" d="M.81,21.05a.8.8,0,0,1-.81-.8v-17A3.28,3.28,0,0,1,3.27,0h17a.81.81,0,0,1,0,1.62h-17A1.65,1.65,0,0,0,1.62,3.27v17a.81.81,0,0,1-.81.8"/>
      </g>
    </g>
  </g>
</svg>
